<svg id="visual" viewBox="0 0 960 540" width="960" height="540" xmlns="http://www.w3.org/2000/svg" xmlns:xlink="http://www.w3.org/1999/xlink" version="1.1"><rect x="0" y="0" width="960" height="540" fill="#001122"></rect><defs><linearGradient id="grad1_0" x1="43.8%" y1="100%" x2="100%" y2="0%"><stop offset="14.444444444444446%" stop-color="#f7770f" stop-opacity="1"></stop><stop offset="85.55555555555554%" stop-color="#f7770f" stop-opacity="1"></stop></linearGradient></defs><defs><linearGradient id="grad1_1" x1="43.8%" y1="100%" x2="100%" y2="0%"><stop offset="14.444444444444446%" stop-color="#f7770f" stop-opacity="1"></stop><stop offset="85.55555555555554%" stop-color="#d53a52" stop-opacity="1"></stop></linearGradient></defs><defs><linearGradient id="grad1_2" x1="43.8%" y1="100%" x2="100%" y2="0%"><stop offset="14.444444444444446%" stop-color="#8a2c67" stop-opacity="1"></stop><stop offset="85.55555555555554%" stop-color="#d53a52" stop-opacity="1"></stop></linearGradient></defs><defs><linearGradient id="grad1_3" x1="43.8%" y1="100%" x2="100%" y2="0%"><stop offset="14.444444444444446%" stop-color="#8a2c67" stop-opacity="1"></stop><stop offset="85.55555555555554%" stop-color="#362753" stop-opacity="1"></stop></linearGradient></defs><defs><linearGradient id="grad1_4" x1="43.8%" y1="100%" x2="100%" y2="0%"><stop offset="14.444444444444446%" stop-color="#001122" stop-opacity="1"></stop><stop offset="85.55555555555554%" stop-color="#362753" stop-opacity="1"></stop></linearGradient></defs><defs><linearGradient id="grad2_0" x1="0%" y1="100%" x2="56.3%" y2="0%"><stop offset="14.444444444444446%" stop-color="#f7770f" stop-opacity="1"></stop><stop offset="85.55555555555554%" stop-color="#f7770f" stop-opacity="1"></stop></linearGradient></defs><defs><linearGradient id="grad2_1" x1="0%" y1="100%" x2="56.3%" y2="0%"><stop offset="14.444444444444446%" stop-color="#d53a52" stop-opacity="1"></stop><stop offset="85.55555555555554%" stop-color="#f7770f" stop-opacity="1"></stop></linearGradient></defs><defs><linearGradient id="grad2_2" x1="0%" y1="100%" x2="56.3%" y2="0%"><stop offset="14.444444444444446%" stop-color="#d53a52" stop-opacity="1"></stop><stop offset="85.55555555555554%" stop-color="#8a2c67" stop-opacity="1"></stop></linearGradient></defs><defs><linearGradient id="grad2_3" x1="0%" y1="100%" x2="56.3%" y2="0%"><stop offset="14.444444444444446%" stop-color="#362753" stop-opacity="1"></stop><stop offset="85.55555555555554%" stop-color="#8a2c67" stop-opacity="1"></stop></linearGradient></defs><defs><linearGradient id="grad2_4" x1="0%" y1="100%" x2="56.3%" y2="0%"><stop offset="14.444444444444446%" stop-color="#362753" stop-opacity="1"></stop><stop offset="85.55555555555554%" stop-color="#001122" stop-opacity="1"></stop></linearGradient></defs><g transform="translate(960, 540)"><path d="M-216 0C-213.6 -28.6 -211.3 -57.2 -199.6 -82.7C-187.8 -108.1 -166.7 -130.5 -143.5 -143.5C-120.4 -156.6 -95.1 -160.4 -70.8 -170.9C-46.5 -181.4 -23.3 -198.7 0 -216L0 0Z" fill="#151e3c"></path><path d="M-172.8 0C-170.9 -22.9 -169 -45.8 -159.6 -66.1C-150.3 -86.5 -133.4 -104.4 -114.8 -114.8C-96.3 -125.3 -76.1 -128.3 -56.6 -136.7C-37.2 -145.2 -18.6 -159 0 -172.8L0 0Z" fill="#5f2c62"></path><path d="M-129.6 0C-128.2 -17.2 -126.8 -34.3 -119.7 -49.6C-112.7 -64.9 -100 -78.3 -86.1 -86.1C-72.2 -94 -57 -96.2 -42.5 -102.6C-27.9 -108.9 -14 -119.2 0 -129.6L0 0Z" fill="#b32e62"></path><path d="M-86.4 0C-85.5 -11.4 -84.5 -22.9 -79.8 -33.1C-75.1 -43.3 -66.7 -52.2 -57.4 -57.4C-48.1 -62.6 -38 -64.2 -28.3 -68.4C-18.6 -72.6 -9.3 -79.5 0 -86.4L0 0Z" fill="#ed543a"></path><path d="M-43.2 0C-42.7 -5.7 -42.3 -11.4 -39.9 -16.5C-37.6 -21.6 -33.3 -26.1 -28.7 -28.7C-24.1 -31.3 -19 -32.1 -14.2 -34.2C-9.3 -36.3 -4.7 -39.7 0 -43.2L0 0Z" fill="#f7770f"></path></g><g transform="translate(0, 0)"><path d="M216 0C215.2 30.3 214.5 60.5 199.6 82.7C184.7 104.8 155.6 118.7 132.9 132.9C110.2 147.2 93.8 161.6 72.7 175.5C51.6 189.4 25.8 202.7 0 216L0 0Z" fill="#151e3c"></path><path d="M172.8 0C172.2 24.2 171.6 48.4 159.6 66.1C147.7 83.8 124.5 95 106.3 106.3C88.2 117.7 75.1 129.3 58.2 140.4C41.3 151.5 20.6 162.2 0 172.8L0 0Z" fill="#5f2c62"></path><path d="M129.6 0C129.1 18.2 128.7 36.3 119.7 49.6C110.8 62.9 93.4 71.2 79.8 79.8C66.1 88.3 56.3 97 43.6 105.3C31 113.7 15.5 121.6 0 129.6L0 0Z" fill="#b32e62"></path><path d="M86.4 0C86.1 12.1 85.8 24.2 79.8 33.1C73.9 41.9 62.3 47.5 53.2 53.2C44.1 58.9 37.5 64.7 29.1 70.2C20.6 75.8 10.3 81.1 0 86.4L0 0Z" fill="#ed543a"></path><path d="M43.2 0C43 6.1 42.9 12.1 39.9 16.5C36.9 21 31.1 23.7 26.6 26.6C22 29.4 18.8 32.3 14.5 35.1C10.3 37.9 5.2 40.5 0 43.2L0 0Z" fill="#f7770f"></path></g></svg>