<svg id="visual" viewBox="0 0 960 540" width="960" height="540" xmlns="http://www.w3.org/2000/svg" xmlns:xlink="http://www.w3.org/1999/xlink" version="1.1"><path d="M0 104L14.5 108.5C29 113 58 122 87.2 120.2C116.3 118.3 145.7 105.7 174.8 104.7C204 103.7 233 114.3 262 108C291 101.7 320 78.3 349 67.5C378 56.7 407 58.3 436.2 65.5C465.3 72.7 494.7 85.3 523.8 90.8C553 96.3 582 94.7 611 102.8C640 111 669 129 698 130.8C727 132.7 756 118.3 785.2 112.8C814.3 107.3 843.7 110.7 872.8 106.2C902 101.7 931 89.3 945.5 83.2L960 77L960 0L945.5 0C931 0 902 0 872.8 0C843.7 0 814.3 0 785.2 0C756 0 727 0 698 0C669 0 640 0 611 0C582 0 553 0 523.8 0C494.7 0 465.3 0 436.2 0C407 0 378 0 349 0C320 0 291 0 262 0C233 0 204 0 174.8 0C145.7 0 116.3 0 87.2 0C58 0 29 0 14.5 0L0 0Z" fill="#04052f"></path><path d="M0 195L14.5 190.5C29 186 58 177 87.2 175.3C116.3 173.7 145.7 179.3 174.8 183C204 186.7 233 188.3 262 175.7C291 163 320 136 349 126.2C378 116.3 407 123.7 436.2 131.8C465.3 140 494.7 149 523.8 155.2C553 161.3 582 164.7 611 176.3C640 188 669 208 698 214.3C727 220.7 756 213.3 785.2 211.5C814.3 209.7 843.7 213.3 872.8 202.5C902 191.7 931 166.3 945.5 153.7L960 141L960 75L945.5 81.2C931 87.3 902 99.7 872.8 104.2C843.7 108.7 814.3 105.3 785.2 110.8C756 116.3 727 130.7 698 128.8C669 127 640 109 611 100.8C582 92.7 553 94.3 523.8 88.8C494.7 83.3 465.3 70.7 436.2 63.5C407 56.3 378 54.7 349 65.5C320 76.3 291 99.7 262 106C233 112.3 204 101.7 174.8 102.7C145.7 103.7 116.3 116.3 87.2 118.2C58 120 29 111 14.5 106.5L0 102Z" fill="#020637"></path><path d="M0 228L14.5 223.5C29 219 58 210 87.2 215.3C116.3 220.7 145.7 240.3 174.8 244.8C204 249.3 233 238.7 262 221.7C291 204.7 320 181.3 349 171.3C378 161.3 407 164.7 436.2 179.8C465.3 195 494.7 222 523.8 237.3C553 252.7 582 256.3 611 260C640 263.7 669 267.3 698 268.3C727 269.3 756 267.7 785.2 265.8C814.3 264 843.7 262 872.8 255.7C902 249.3 931 238.7 945.5 233.3L960 228L960 139L945.5 151.7C931 164.3 902 189.7 872.8 200.5C843.7 211.3 814.3 207.7 785.2 209.5C756 211.3 727 218.7 698 212.3C669 206 640 186 611 174.3C582 162.7 553 159.3 523.8 153.2C494.7 147 465.3 138 436.2 129.8C407 121.7 378 114.3 349 124.2C320 134 291 161 262 173.7C233 186.3 204 184.7 174.8 181C145.7 177.3 116.3 171.7 87.2 173.3C58 175 29 184 14.5 188.5L0 193Z" fill="#00063e"></path><path d="M0 379L14.5 375.3C29 371.7 58 364.3 87.2 361.7C116.3 359 145.7 361 174.8 354.8C204 348.7 233 334.3 262 324.3C291 314.3 320 308.7 349 321.2C378 333.7 407 364.3 436.2 384.2C465.3 404 494.7 413 523.8 402.2C553 391.3 582 360.7 611 355.3C640 350 669 370 698 385.3C727 400.7 756 411.3 785.2 405.8C814.3 400.3 843.7 378.7 872.8 376C902 373.3 931 389.7 945.5 397.8L960 406L960 226L945.5 231.3C931 236.7 902 247.3 872.8 253.7C843.7 260 814.3 262 785.2 263.8C756 265.7 727 267.3 698 266.3C669 265.3 640 261.7 611 258C582 254.3 553 250.7 523.8 235.3C494.7 220 465.3 193 436.2 177.8C407 162.7 378 159.3 349 169.3C320 179.3 291 202.7 262 219.7C233 236.7 204 247.3 174.8 242.8C145.7 238.3 116.3 218.7 87.2 213.3C58 208 29 217 14.5 221.5L0 226Z" fill="#00125b"></path><path d="M0 541L14.5 541C29 541 58 541 87.2 541C116.3 541 145.7 541 174.8 541C204 541 233 541 262 541C291 541 320 541 349 541C378 541 407 541 436.2 541C465.3 541 494.7 541 523.8 541C553 541 582 541 611 541C640 541 669 541 698 541C727 541 756 541 785.2 541C814.3 541 843.7 541 872.8 541C902 541 931 541 945.5 541L960 541L960 404L945.5 395.8C931 387.7 902 371.3 872.8 374C843.7 376.7 814.3 398.3 785.2 403.8C756 409.3 727 398.7 698 383.3C669 368 640 348 611 353.3C582 358.7 553 389.3 523.8 400.2C494.7 411 465.3 402 436.2 382.2C407 362.3 378 331.7 349 319.2C320 306.7 291 312.3 262 322.3C233 332.3 204 346.7 174.8 352.8C145.7 359 116.3 357 87.2 359.7C58 362.3 29 369.7 14.5 373.3L0 377Z" fill="#001a7a"></path></svg>