<svg id="visual" viewBox="0 0 900 600" width="900" height="600" xmlns="http://www.w3.org/2000/svg" xmlns:xlink="http://www.w3.org/1999/xlink" version="1.1"><rect x="0" y="0" width="900" height="600" fill="#090909"></rect><path d="M334 0L327.7 25C321.3 50 308.7 100 308.8 150C309 200 322 250 321.7 300C321.3 350 307.7 400 309.2 450C310.7 500 327.3 550 335.7 575L344 600L0 600L0 575C0 550 0 500 0 450C0 400 0 350 0 300C0 250 0 200 0 150C0 100 0 50 0 25L0 0Z" fill="#636976" stroke-linecap="round" stroke-linejoin="miter"></path></svg>